<svg xmlns="http://www.w3.org/2000/svg" width="345.429" height="372" viewBox="0 0 345.429 372"><defs><style>.a{opacity:0.1;}.b{fill:#e1e1e1;}</style></defs><g class="a"><path class="b" d="M196.643,136.857H184.931l13.9,24.167,4.816-2.89a32.942,32.942,0,0,1,12.92-4.431V4H4V296.286H182.029l-27.063-21.064A32.9,32.9,0,0,1,142.4,252.516l-3.454-34.284a32.643,32.643,0,0,1,.326-8.3H23.929a6.643,6.643,0,1,1,0-13.286H144.41a32.775,32.775,0,0,1,9.2-9.094l-8.782-17.477H23.929a6.643,6.643,0,0,1,0-13.286H138.086l-5.434-10.768a25.562,25.562,0,0,1-2.292-9.16H23.929a6.643,6.643,0,0,1,0-13.286H133.277a24.831,24.831,0,0,1,43.923-.139l.086.139h19.357a6.643,6.643,0,0,1,0,13.286ZM123.571,269.714a6.643,6.643,0,0,1-6.643,6.643H103.643a6.643,6.643,0,0,1,0-13.286h13.286A6.643,6.643,0,0,1,123.571,269.714ZM23.929,229.857h86.357a6.643,6.643,0,1,1,0,13.286H23.929a6.643,6.643,0,0,1,0-13.286ZM77.071,23.929H143.5a6.643,6.643,0,1,1,0,13.286H77.071a6.643,6.643,0,1,1,0-13.286ZM23.929,57.143H196.643a6.643,6.643,0,1,1,0,13.286H23.929a6.643,6.643,0,1,1,0-13.286Zm172.714,46.5H23.929a6.643,6.643,0,1,1,0-13.286H196.643a6.643,6.643,0,1,1,0,13.286Z" transform="translate(22.571 22.571)"/><path class="b" d="M19.929,332.143a6.643,6.643,0,0,1-6.643-6.643V19.929a6.643,6.643,0,0,1,6.643-6.643H245.786a6.643,6.643,0,0,1,6.643,6.643V177.278c.359.106.717.2,1.069.319l5.979-3.547a33.463,33.463,0,0,1,6.238-2.85V19.929A19.929,19.929,0,0,0,245.786,0H19.929A19.929,19.929,0,0,0,0,19.929V352.071A19.929,19.929,0,0,0,19.929,372H225.857V335.4l-4.185-3.255Zm132.857,26.571H112.929a6.643,6.643,0,1,1,0-13.286h39.857a6.643,6.643,0,1,1,0,13.286Z"/><path class="b" d="M199.414,93.432l-7.692-15.279-5.979-9.964a19.962,19.962,0,0,0-23.177-8.676c.438.624.943,1.156,1.329,1.827l6.258,10.449a6.644,6.644,0,0,1-11.4,6.829l-6.244-10.429a18.175,18.175,0,0,0-4.65-5.235,19.749,19.749,0,0,0-22.546-1.647,33.514,33.514,0,0,1,5.407,6.683l6.251,10.443a6.644,6.644,0,0,1-11.4,6.829l-6.244-10.429A19.51,19.51,0,0,0,110.4,66.94,19.8,19.8,0,0,0,91.986,68L86.95,71.032l16.866,29.308A6.648,6.648,0,1,1,92.3,106.983l-20.075-34.9v-.093L47.093,28.312A11.7,11.7,0,0,0,26.1,38.641l44.687,88.523a6.643,6.643,0,0,1-2.936,8.921,6.557,6.557,0,0,1-2.989.717,6.643,6.643,0,0,1-5.939-3.654L41.135,97.942a19.6,19.6,0,0,0-7.467,17.418l3.454,34.277a19.576,19.576,0,0,0,7.467,13.531l48.327,37.625a13.08,13.08,0,0,1,5.1,10.456v36.6h93v-12.21A135.973,135.973,0,0,1,198,192.609a122.528,122.528,0,0,0,6.3-38.834V114.264a47.164,47.164,0,0,0-4.889-20.832Z" transform="translate(141.125 124.149)"/></g></svg>