<svg xmlns="http://www.w3.org/2000/svg" width="308" height="308.001" viewBox="0 0 308 308.001"><defs><style>.a{opacity:0.08;}.b{fill:#e1e1e1;}</style></defs><g class="a" transform="translate(0 0)"><path class="b" d="M190.119,11.738a294.972,294.972,0,0,0-48.1,13.537c-28.652,10.9-52.787,26.036-71.736,44.985S36.2,113.344,25.3,142a294.88,294.88,0,0,0-13.5,47.932L127.429,305.563a294.879,294.879,0,0,0,47.932-13.5c28.652-10.9,52.787-26.036,71.736-44.985s34.084-43.084,44.985-71.736a295.032,295.032,0,0,0,13.537-48.1ZM86.984,191.287l13.052,13.052,25.123-25.123-13.052-13.052,12.779-12.779,13.052,13.052,28.521-28.521-13.052-13.052,12.779-12.779,13.052,13.052L206.8,97.571,193.752,84.519,206.531,71.74l38.883,38.883L232.635,123.4,219.583,110.35l-27.566,27.566,13.052,13.052L192.29,163.747l-13.052-13.052-28.521,28.521,13.052,13.052L150.99,205.047,137.938,192l-25.123,25.123,13.052,13.052-12.779,12.779L74.205,204.067Z" transform="translate(-4.689 -4.667)"/><path class="b" d="M441.4,100.607q.382-2.893.727-5.817c5.474-46.953,1.118-83.564.93-85.1L442.2,2.679l-7.012-.859c-1.535-.188-38.145-4.543-85.1.931q-2.926.341-5.816.727Z" transform="translate(-136.878 0)"/><path class="b" d="M3.5,343.977q-.4,2.982-.752,5.995c-5.474,46.954-1.118,83.564-.93,85.1l.859,7.011,7.011.859a332.319,332.319,0,0,0,37.116,1.82,416.971,416.971,0,0,0,47.983-2.751q3.016-.352,5.995-.752Z" transform="translate(0 -136.761)"/></g></svg>