<svg xmlns="http://www.w3.org/2000/svg" width="343.619" height="416.901" viewBox="0 0 343.619 416.901"><defs><style>.a{opacity:0.14;}.b{fill:#e1e1e1;}</style></defs><g class="a" transform="translate(7.902 -12.212) rotate(11)"><g transform="translate(128.867 74.133)"><rect class="b" width="148.267" height="27.8"/></g><g transform="translate(128.867 129.733)"><rect class="b" width="148.267" height="27.8"/></g><g transform="translate(128.867 185.333)"><rect class="b" width="148.267" height="27.8"/></g><g transform="translate(128.867 240.933)"><rect class="b" width="74.133" height="27.8"/></g><g transform="translate(64)"><path class="b" d="M323.467,0H82.533A18.533,18.533,0,0,0,64,18.533v333.6a18.533,18.533,0,0,0,18.533,18.533H323.467A18.533,18.533,0,0,0,342,352.133V18.533A18.533,18.533,0,0,0,323.467,0ZM216.106,346.706A18.416,18.416,0,0,1,203,352.133h0a18.531,18.531,0,1,1,13.11-5.428Zm88.827-50.172H101.067V46.333H304.933Z" transform="translate(-64)"/></g></g></svg>