<svg xmlns="http://www.w3.org/2000/svg" width="1167.333" height="317.096" viewBox="0 0 1167.333 317.096"><defs><style>.a{opacity:0.1;}.b{fill:#e1e1e1;}</style></defs><g class="a" transform="translate(416.002 -2.786)"><path class="b" d="M302.266,111.251c-28.771,0-83.358-10.578-115.767-17.452-7.177-1.514-14.287-3.374-21.186-5.167l-2.481-.646C100.521,71.8,7.178,66.633,6.227,66.592a4.267,4.267,0,0,1-4.221-4.357,4.373,4.373,0,0,1,4.75-3.871c.946.049,95.263,5.274,158.516,21.7l2.494.65c6.791,1.769,13.811,3.6,20.751,5.069,22.662,4.8,98.452,20.2,122.3,16.753a4.443,4.443,0,0,1,5.031,3.435,4.165,4.165,0,0,1-3.631,4.69,71.427,71.427,0,0,1-9.954.592Z" transform="translate(-14.657 208.627)"/><path class="b" d="M56.337,99.689c-6.8,0-12.971-.947-15.782-2.414s-1.747-3.188,2.722-4.4C49.164,91.28,192.723,53.853,595,55.392c9.592.036,17.244,1.908,17.089,4.18-.264,2.261-8.1,4.058-17.645,4.048C209.43,62.069,70.7,97.945,69.362,98.3a53.846,53.846,0,0,1-13.026,1.386Z" transform="translate(139.236 199.252)"/><path class="b" d="M35.114,77.592A4.114,4.114,0,0,1,31,73.478V24.889a4.114,4.114,0,1,1,8.228,0V73.478A4.114,4.114,0,0,1,35.114,77.592Z" transform="translate(101.677 67.737)"/><path class="b" d="M42.114,73.259A4.114,4.114,0,0,1,38,69.145V25.489a4.114,4.114,0,1,1,8.228,0V69.145A4.114,4.114,0,0,1,42.114,73.259Z" transform="translate(124.085 69.736)"/><path class="b" d="M63.913,41.517A4.114,4.114,0,0,1,59.8,37.4V21.3a10.285,10.285,0,0,0-20.571,0V34.934a4.114,4.114,0,1,1-8.228,0V21.3a18.514,18.514,0,1,1,37.028,0V37.4a4.114,4.114,0,0,1-4.114,4.114Z" transform="translate(101.973)"/><path class="b" d="M35.114,127.4A4.114,4.114,0,0,1,31,123.281V47.889a4.114,4.114,0,1,1,8.228,0v75.392A4.114,4.114,0,0,1,35.114,127.4Z" transform="translate(101.677 163.219)"/><path class="b" d="M42.114,136.444A4.114,4.114,0,0,1,38,132.33V47.29a4.114,4.114,0,1,1,8.228,0v85.04A4.114,4.114,0,0,1,42.114,136.444Z" transform="translate(124.085 161.354)"/><path class="b" d="M134.641,72.075h-.346L24.632,62.735a4.114,4.114,0,0,1-3.748-4.452l3.892-45.667a4.065,4.065,0,0,1,4.452-3.785l109.659,9.339a4.114,4.114,0,0,1,2.543,1.177L166.9,44.53a4.114,4.114,0,0,1-.539,6.295L137.019,71.334A4.114,4.114,0,0,1,134.641,72.075ZM29.429,54.873l104.089,8.862L157.61,46.908l-20.9-20.661L32.625,17.4Z" transform="translate(70.707 18.767)"/><path class="b" d="M49.332,94.34a4.114,4.114,0,0,1-2.353-.745L17.632,73.087a4.114,4.114,0,0,1-.539-6.3L42.564,41.609a4.114,4.114,0,0,1,2.547-1.173l109.655-9.343a4.114,4.114,0,0,1,4.431,3.773l3.888,45.667a4.114,4.114,0,0,1-3.748,4.447L49.681,94.324a3.316,3.316,0,0,1-.35.016ZM26.375,69.17,50.463,86l104.089-8.862-3.209-37.492L47.254,48.508Z" transform="translate(54.653 107.083)"/><path class="b" d="M51.434,99.689c-4.878,0-9.3-.947-11.318-2.414s-1.253-3.188,1.952-4.4c4.222-1.592,107.177-39.019,395.677-37.48,6.879.036,12.367,1.908,12.256,4.18-.189,2.261-5.808,4.058-12.654,4.048C161.226,62.069,61.734,97.945,60.775,98.3a28.259,28.259,0,0,1-9.341,1.386Z" transform="translate(-455.004 211.252)"/></g></svg>