<svg xmlns="http://www.w3.org/2000/svg" width="297" height="297" viewBox="0 0 297 297"><defs><style>.a{opacity:0.1;}.b{fill:#e1e1e1;}</style></defs><g class="a" transform="translate(-3 -3)"><path class="b" d="M105.414,105.569v-25.6a5.126,5.126,0,0,1,2.832-4.583l11.322-5.658-11.322-5.658a5.126,5.126,0,0,1-2.832-4.583V44.121A5.129,5.129,0,0,0,100.293,39H8.121A5.129,5.129,0,0,0,3,44.121v61.448a5.129,5.129,0,0,0,5.121,5.121h92.172A5.129,5.129,0,0,0,105.414,105.569Zm-10.241-5.121H13.241V90.207H95.172ZM23.483,79.966V69.724H84.931V79.966Zm71.69-20.483H13.241V49.241H95.172Z" transform="translate(0 148.345)"/><path class="b" d="M95.172,14.08,52.287,48.389a5.118,5.118,0,0,1-6.4.005L3,14.08V70H95.172Z" transform="translate(0 45.657)"/><path class="b" d="M78.067,13H4.851L41.459,42.285Z" transform="translate(7.627 41.207)"/><path class="b" d="M144.6,3H42.187A25.651,25.651,0,0,0,17.1,23.483H169.687A25.651,25.651,0,0,0,144.6,3Z" transform="translate(58.106 0)"/><path class="b" d="M57.966,56.121A15.381,15.381,0,0,1,42.6,71.483H17V76.6a25.633,25.633,0,0,0,25.6,25.6H145.017a25.633,25.633,0,0,0,25.6-25.6V51H57.966ZM93.81,61.241A15.362,15.362,0,1,1,78.448,76.6,15.381,15.381,0,0,1,93.81,61.241Z" transform="translate(57.69 197.793)"/><circle class="b" cx="5.5" cy="5.5" r="5.5" transform="translate(146 269)"/><ellipse class="b" cx="14.5" cy="16" rx="14.5" ry="16" transform="translate(245 120)"/><path class="b" d="M111.569,20H60.362A15.381,15.381,0,0,0,45,35.362V86.569a15.381,15.381,0,0,0,15.362,15.362h51.207a15.381,15.381,0,0,0,15.362-15.362V35.362A15.381,15.381,0,0,0,111.569,20Zm-25.6,71.69a25.6,25.6,0,1,1,25.6-25.6A25.633,25.633,0,0,1,85.966,91.69ZM116.69,40.483H106.448V30.241H116.69Z" transform="translate(173.069 70.052)"/><path class="b" d="M150.138,131.9V80.69A25.651,25.651,0,0,1,170.621,55.6V9H17V19.241H42.6a5.123,5.123,0,0,1,5.121,5.121v71.69a5.123,5.123,0,0,1-5.121,5.121H17v51.207H42.6a15.381,15.381,0,0,1,15.362,15.362v12.2l17.651,8.828a5.12,5.12,0,0,1,0,9.161l-17.651,8.823v7.077H170.621V156.983A25.651,25.651,0,0,1,150.138,131.9Z" transform="translate(57.69 24.724)"/></g></svg>